# Blender 3.6.1 Release Candidate
# www.blender.org
mtllib Azd97.mtl
o AZD_97
v -0.312500 1.460116 0.250000
v 0.312500 1.460116 0.250000
v -0.312500 2.210116 0.250000
v 0.312500 2.210116 0.250000
v 0.375000 0.062500 -0.375000
v 0.375000 0.000000 -0.375000
v 0.375000 0.062500 0.375000
v 0.375000 0.000000 0.375000
v -0.375000 0.062500 -0.375000
v -0.375000 0.000000 -0.375000
v -0.375000 0.062500 0.375000
v -0.375000 0.000000 0.375000
v -0.062500 0.426479 0.062500
v -0.062500 2.213195 0.062500
v -0.062500 0.426479 -0.062500
v 0.062500 0.426479 0.062500
v 0.062500 0.426479 -0.062500
v 0.062500 2.213190 -0.062500
v 0.078125 2.116366 0.375000
v 0.203125 2.116366 0.375000
v 0.078125 2.116366 0.250000
v 0.203125 2.116366 0.250000
v 0.015625 2.053866 0.375000
v 0.015625 2.053866 0.250000
v 0.265625 2.053866 0.375000
v 0.265625 2.053866 0.250000
v -0.203125 2.116366 0.375000
v -0.078125 2.116366 0.375000
v -0.203125 2.116366 0.250000
v -0.078125 2.116366 0.250000
v -0.265625 2.053866 0.375000
v -0.265625 2.053866 0.250000
v -0.015625 2.053866 0.375000
v -0.015625 2.053866 0.250000
v -0.062500 1.866366 0.375000
v 0.062500 1.866366 0.375000
v -0.062500 1.866366 0.250000
v 0.062500 1.866366 0.250000
v -0.125000 1.803866 0.375000
v -0.125000 1.803866 0.250000
v 0.125000 1.803866 0.375000
v 0.125000 1.803866 0.250000
v -0.312500 1.460116 0.243750
v 0.312500 1.460116 0.243750
v -0.312500 2.210116 0.243750
v 0.312500 2.210116 0.243750
v -0.031250 2.128617 0.191388
v -0.031250 2.191117 0.191388
v -0.031250 2.128617 0.003888
v -0.031250 2.191117 0.003888
v 0.031250 2.128617 0.191388
v 0.031250 2.191117 0.191388
v 0.031250 2.128617 0.003888
v 0.031250 2.191117 0.003888
v -0.213921 1.712300 0.246447
v -0.213921 2.130745 0.246447
v -0.213921 1.712300 0.121447
v -0.213921 2.130745 0.121447
v 0.213921 1.712300 0.246447
v 0.213921 2.130745 0.246447
v 0.213921 1.712300 0.121447
v 0.213921 2.130745 0.121447
v -0.156250 0.062500 0.187500
v -0.156250 0.437500 0.187500
v -0.156250 0.062500 -0.187500
v -0.156250 0.437500 -0.187500
v 0.156250 0.062500 0.187500
v 0.156250 0.437500 0.187500
v 0.156250 0.062500 -0.187500
v 0.156250 0.437500 -0.187500
v -0.062500 2.557050 0.062500
v -0.062500 2.213190 -0.062500
v -0.062500 2.557050 -0.062500
v 0.062500 2.213190 0.062500
v 0.062500 2.557050 0.062500
v 0.062500 2.557050 -0.062500
v -0.031250 2.448001 0.241014
v -0.031250 2.510501 0.241014
v -0.031250 2.448001 0.053514
v -0.031250 2.510501 0.053514
v 0.031250 2.448001 0.241014
v 0.031250 2.510501 0.241014
v 0.031250 2.448001 0.053514
v 0.031250 2.510501 0.053514
v -0.321495 0.803814 0.090237
v -0.051528 0.803814 -0.120999
v -0.321496 0.803814 -0.120999
v -0.051528 0.803814 0.090237
v -0.051528 1.291718 0.090237
v -0.321496 1.291718 -0.120999
v -0.321495 1.291718 0.090237
v -0.051528 1.291718 -0.120999
v 0.078125 2.103240 0.250000
v 0.078125 2.103240 0.375000
v 0.203125 2.103240 0.375000
v 0.203125 2.103240 0.250000
v 0.015625 2.040740 0.250000
v 0.015625 2.040740 0.375000
v 0.265625 2.040740 0.375000
v 0.265625 2.040740 0.250000
v -0.203125 2.103240 0.250000
v -0.203125 2.103240 0.375000
v -0.078125 2.103240 0.375000
v -0.078125 2.103240 0.250000
v -0.265625 2.040740 0.250000
v -0.265625 2.040740 0.375000
v -0.015625 2.040740 0.375000
v -0.015625 2.040740 0.250000
v -0.062500 1.853241 0.250000
v -0.062500 1.853241 0.375000
v 0.062500 1.853241 0.375000
v 0.062500 1.853241 0.250000
v -0.125000 1.790741 0.250000
v -0.125000 1.790741 0.375000
v 0.125000 1.790741 0.375000
v 0.125000 1.790741 0.250000
vn -0.0000 -0.0000 1.0000
vn -0.0000 1.0000 -0.0000
vn -1.0000 -0.0000 -0.0000
vn -0.0000 -1.0000 -0.0000
vn 1.0000 -0.0000 -0.0000
vn -0.0000 -0.0000 -1.0000
vn -0.7071 0.7071 -0.0000
vn 0.7071 0.7071 -0.0000
vn 0.7071 -0.7071 -0.0000
vn -0.7071 -0.7071 -0.0000
vt 0.000000 0.500000
vt 0.500000 0.500000
vt 0.500000 1.000000
vt 0.000000 1.000000
vt 0.865854 0.500000
vt 0.500000 0.000000
vt 0.865854 0.000000
vt 0.926829 0.000000
vt 0.963414 0.000000
vt 0.963414 0.083333
vt 0.926829 0.083333
vt 0.896341 0.000000
vt 0.896341 0.500000
vt 0.125000 0.500000
vt 0.375000 0.500000
vt 0.375000 0.750000
vt 0.125000 0.750000
vt 0.926829 0.500000
vt 0.926829 0.000000
vt 0.963415 0.000000
vt 1.000000 0.000000
vt 1.000000 0.083333
vt 0.963415 0.083333
vt 0.566667 0.416667
vt 0.566667 0.000000
vt 0.766666 0.000000
vt 0.766667 0.416667
vt 0.533333 0.000000
vt 0.533333 0.500000
vt 0.766667 0.416667
vt 0.766667 0.000000
vt 0.966667 0.000000
vt 0.966667 0.416667
vt 0.566667 0.000000
vt 0.566667 0.500000
vt 1.000000 0.198599
vt 0.966667 0.198599
vt 0.966667 0.000000
vt 0.325000 0.700000
vt 0.425000 0.700000
vt 0.425000 0.800000
vt 0.325000 0.800000
vt 1.000000 1.000000
vt 1.000000 0.500000
vt 0.687500 0.500000
vt 0.812500 0.500000
vt 0.812500 0.625000
vt 0.687500 0.625000
vt 0.375000 0.250000
vt 0.625000 0.250000
vt 0.625000 0.500000
vt 0.687500 0.750000
vt 0.812500 0.750000
vt 0.812500 0.875000
vt 0.687500 0.875000
vt 0.812500 1.000000
vt 0.687500 1.000000
vt 0.562500 0.750000
vt 0.562500 0.875000
vt 0.937500 0.750000
vt 0.937500 0.875000
vt 0.625000 0.750000
vt 0.625000 1.000000
vt 0.375000 1.000000
vt 0.000000 0.000000
vt 0.111111 0.000000
vt 0.111111 0.500000
vt 0.500000 0.000000
vt 0.500000 0.100000
vt 0.407407 0.100000
vt 0.407407 0.000000
vt 0.222222 0.500000
vt 0.222222 0.000000
vt 0.500000 0.200000
vt 0.407407 0.200000
vt 0.314815 0.500000
vt 0.222222 0.500000
vt 0.222222 0.000000
vt 0.314815 0.000000
vt 0.407407 0.500000
vt 0.314815 0.000000
vt 0.566667 0.275328
vt 0.566667 0.212008
vt 0.766666 0.212008
vt 0.766667 0.275328
vt 0.533333 0.212008
vt 0.533333 0.287992
vt 0.500000 0.287992
vt 0.500000 0.212008
vt 0.766667 0.275328
vt 0.766667 0.212008
vt 0.966667 0.212008
vt 0.966667 0.275328
vt 0.566667 0.287992
vt 0.000000 0.319128
vt 0.250000 0.319128
vt 0.250000 0.138415
vt 0.000000 0.138415
vt 0.138575 0.319128
vt 0.138574 0.499523
vt 0.277149 0.499523
vt 0.277149 0.319128
vt 0.500000 0.319128
vt 0.500000 0.180554
vt 0.250000 0.180554
vt 0.250000 0.319128
vt 0.500000 -0.000159
vt 0.250000 -0.000159
vt -0.000000 -0.000159
vt 0.000000 0.319128
vt 0.000000 0.499523
vt 0.138574 0.319128
s 0
usemtl Material.005
f 1/1/1 2/2/1 4/3/1 3/4/1
f 5/5/2 9/2/2 11/6/2 7/7/2
f 8/8/1 7/9/1 11/10/1 12/11/1
f 12/7/3 11/12/3 9/13/3 10/5/3
f 10/14/4 6/15/4 8/16/4 12/17/4
f 6/18/5 5/13/5 7/12/5 8/19/5
f 10/20/6 9/21/6 5/22/6 6/23/6
f 13/24/3 14/25/3 72/26/3 15/27/3
f 15/28/6 72/29/6 18/2/6 17/6/6
f 17/30/5 18/31/5 74/32/5 16/33/5
f 16/34/1 74/35/1 14/29/1 13/28/1
f 15/36/4 17/37/4 16/38/4 13/21/4
f 19/39/2 20/40/2 22/41/2 21/42/2
f 19/39/7 21/42/7 24/42/7 23/39/7
f 22/41/8 20/40/8 25/40/8 26/41/8
f 27/39/2 28/40/2 30/41/2 29/42/2
f 27/39/7 29/42/7 32/42/7 31/39/7
f 30/41/8 28/40/8 33/40/8 34/41/8
f 35/39/2 36/40/2 38/41/2 37/42/2
f 35/39/7 37/42/7 40/42/7 39/39/7
f 38/41/8 36/40/8 41/40/8 42/41/8
f 43/2/6 45/3/6 46/43/6 44/44/6
f 47/45/3 48/46/3 50/47/3 49/48/3
f 49/49/6 50/50/6 54/51/6 53/15/6
f 53/52/5 54/53/5 52/54/5 51/55/5
f 51/55/1 52/54/1 48/56/1 47/57/1
f 49/58/4 53/52/4 51/55/4 47/59/4
f 54/53/2 50/60/2 48/61/2 52/54/2
f 55/45/3 56/46/3 58/47/3 57/48/3
f 57/48/6 58/47/6 62/53/6 61/52/6
f 61/52/5 62/53/5 60/54/5 59/55/5
f 59/16/1 60/62/1 56/63/1 55/64/1
f 57/58/4 61/52/4 59/55/4 55/59/4
f 62/53/2 58/60/2 56/61/2 60/54/2
f 63/65/3 64/66/3 66/67/3 65/1/3
f 65/68/6 66/69/6 70/70/6 69/71/6
f 69/72/5 70/67/5 68/66/5 67/73/5
f 67/69/1 68/74/1 64/75/1 63/70/1
f 65/76/4 69/77/4 67/78/4 63/79/4
f 70/80/2 66/76/2 64/81/2 68/71/2
f 14/82/3 71/83/3 73/84/3 72/85/3
f 72/86/6 73/87/6 76/88/6 18/89/6
f 18/90/5 76/91/5 75/92/5 74/93/5
f 74/83/1 75/94/1 71/87/1 14/86/1
f 77/45/3 78/46/3 80/47/3 79/48/3
f 83/52/5 84/53/5 82/54/5 81/55/5
f 79/58/4 83/52/4 81/55/4 77/59/4
f 84/53/2 80/60/2 78/61/2 82/54/2
f 89/95/5 88/96/5 86/97/5 92/98/5
f 85/99/4 87/100/4 86/101/4 88/102/4
f 85/103/1 88/104/1 89/105/1 91/106/1
f 85/107/3 91/108/3 90/105/3 87/104/3
f 90/109/6 92/98/6 86/97/6 87/108/6
f 89/110/2 92/111/2 90/100/2 91/112/2
f 94/39/4 93/42/4 96/41/4 95/40/4
f 94/39/9 98/39/9 97/42/9 93/42/9
f 96/41/10 100/41/10 99/40/10 95/40/10
f 102/39/4 101/42/4 104/41/4 103/40/4
f 102/39/9 106/39/9 105/42/9 101/42/9
f 104/41/10 108/41/10 107/40/10 103/40/10
f 110/39/4 109/42/4 112/41/4 111/40/4
f 110/39/9 114/39/9 113/42/9 109/42/9
f 112/41/10 116/41/10 115/40/10 111/40/10
f 21/42/6 93/42/6 97/42/6 24/42/6
f 35/39/1 110/39/1 111/40/1 36/40/1
f 32/42/3 105/42/3 106/39/3 31/39/3
f 36/40/1 111/40/1 115/40/1 41/40/1
f 25/40/5 99/40/5 100/41/5 26/41/5
f 31/39/1 106/39/1 102/39/1 27/39/1
f 26/41/6 100/41/6 96/41/6 22/41/6
f 38/41/6 112/41/6 109/42/6 37/42/6
f 19/39/1 94/39/1 95/40/1 20/40/1
f 29/42/6 101/42/6 105/42/6 32/42/6
f 20/40/1 95/40/1 99/40/1 25/40/1
f 40/42/3 113/42/3 114/39/3 39/39/3
f 33/40/5 107/40/5 108/41/5 34/41/5
f 39/39/1 114/39/1 110/39/1 35/39/1
f 22/41/6 96/41/6 93/42/6 21/42/6
f 34/41/6 108/41/6 104/41/6 30/41/6
f 27/39/1 102/39/1 103/40/1 28/40/1
f 37/42/6 109/42/6 113/42/6 40/42/6
f 24/42/3 97/42/3 98/39/3 23/39/3
f 28/40/1 103/40/1 107/40/1 33/40/1
f 41/40/5 115/40/5 116/41/5 42/41/5
f 23/39/1 98/39/1 94/39/1 19/39/1
f 30/41/6 104/41/6 101/42/6 29/42/6
f 42/41/6 116/41/6 112/41/6 38/41/6
