# Blender 3.6.1 Release Candidate
# www.blender.org
mtllib Barrier_2.mtl
o Barrier
v 0.245944 1.536577 -0.064272
v 0.245944 0.206577 -0.064272
v 0.045944 1.536577 -0.064272
v 0.045944 0.206577 -0.064272
v 0.245944 1.536577 0.061728
v 0.245944 0.206577 0.061728
v 0.045944 1.536577 0.061728
v 0.045944 0.210291 0.061728
v 0.245944 3.101155 -0.001272
v 0.045944 0.204662 -0.088076
v 0.245944 0.204662 -0.088076
v 0.245944 1.534662 -0.088076
v 0.068115 0.403792 -0.111251
v 0.023773 0.403792 -0.111251
v 0.068115 0.403792 0.108708
v 0.023773 0.403792 0.108708
v 0.068115 0.206210 -0.111251
v 0.023773 0.206210 -0.111251
v 0.068115 0.206210 0.108708
v 0.023773 0.206210 0.108708
v 0.268115 0.403792 -0.111251
v 0.223773 0.403792 -0.111251
v 0.268115 0.403792 0.108708
v 0.223773 0.403792 0.108708
v 0.268115 0.206210 -0.111251
v 0.223773 0.206210 -0.111251
v 0.268115 0.206210 0.108708
v 0.223773 0.206210 0.108708
v 0.268484 0.407486 -0.151534
v 0.024625 0.407486 -0.151534
v 0.268484 0.407486 -0.111534
v 0.024625 0.407486 -0.111534
v 0.268484 0.200387 -0.151534
v -0.106980 -0.071654 -0.151534
v 0.268484 0.200387 -0.111534
v -0.106980 -0.071654 -0.111534
v 0.146555 0.407486 -0.151534
v 0.146555 0.407486 -0.111534
v 0.080120 -0.071654 -0.111534
v 0.080120 -0.071654 -0.151534
v 0.268484 0.269420 -0.111534
v 0.268484 0.338453 -0.111534
v 0.024515 0.247773 -0.111534
v -0.106980 0.107714 -0.106437
v 0.268484 0.338453 -0.151534
v 0.268484 0.269420 -0.151534
v -0.106980 0.107714 -0.146437
v 0.024515 0.247773 -0.151534
v 0.102265 0.088059 -0.151534
v 0.124410 0.247773 -0.151534
v 0.124410 0.247773 -0.111534
v 0.102265 0.088059 -0.111534
v -0.106980 -0.533405 -0.111535
v -0.106980 -0.533405 -0.151535
v 0.080120 -0.533405 -0.111535
v 0.080120 -0.533405 -0.151535
v 0.268484 0.407486 0.149438
v 0.024625 0.407486 0.149438
v 0.268484 0.407486 0.109438
v 0.024625 0.407486 0.109438
v 0.268484 0.200387 0.149438
v -0.106980 -0.071654 0.149438
v 0.268484 0.200387 0.109438
v -0.106980 -0.071654 0.109438
v 0.146555 0.407486 0.149438
v 0.146555 0.407486 0.109438
v 0.080120 -0.071654 0.109438
v 0.080120 -0.071654 0.149438
v 0.268484 0.269420 0.109438
v 0.268484 0.338453 0.109438
v 0.024515 0.247773 0.109438
v -0.106980 0.107714 0.104342
v 0.268484 0.338453 0.149438
v 0.268484 0.269420 0.149438
v -0.106980 0.107714 0.144342
v 0.024515 0.247773 0.149438
v 0.102265 0.088059 0.149438
v 0.124410 0.247773 0.149438
v 0.124410 0.247773 0.109438
v 0.102265 0.088059 0.109438
v -0.106980 -0.533405 0.109439
v -0.106980 -0.533405 0.149439
v 0.080120 -0.533405 0.109439
v 0.080120 -0.533405 0.149439
v 0.045944 1.534662 -0.088076
v 0.045944 3.101155 -0.001272
v 0.245944 4.101154 -0.001272
v 0.045944 4.101154 -0.001272
v 0.045944 1.534662 0.037924
v 0.245944 1.534662 0.037924
v 0.045944 0.208376 0.037924
v 0.245944 0.204662 0.037924
v 0.245944 3.099239 -0.025076
v 0.045944 4.099239 -0.025076
v 0.245944 4.099239 -0.025076
v 0.045944 3.099239 -0.025076
vn -0.0000 -0.0000 1.0000
vn -0.0000 -0.0402 0.9992
vn -0.0000 0.0402 0.9992
vn -0.0000 1.0000 -0.0000
vn -0.0000 -1.0000 -0.0000
vn -0.0000 -0.0000 -1.0000
vn 1.0000 -0.0000 -0.0000
vn -1.0000 -0.0000 -0.0000
vn 0.0121 -0.0158 0.9998
vn -1.0000 0.0007 -0.0000
vn 0.8222 -0.5693 -0.0000
vn -0.7290 0.6845 -0.0000
vn -0.0121 0.0158 -0.9998
vn -0.0170 -0.0083 -0.9998
vn 0.0170 0.0083 0.9998
vn 0.0121 -0.0158 -0.9998
vn -0.0121 0.0158 0.9998
vn -0.0170 -0.0083 0.9998
vn 0.0170 0.0083 -0.9998
vn -0.0000 0.0402 -0.9992
vn -0.0000 -0.0402 -0.9992
vn -0.0000 0.9968 -0.0802
vn -0.0000 -0.9968 0.0802
vn 0.0185 0.9966 -0.0802
vt 0.526800 0.000000
vt 0.526800 1.000000
vt 0.799237 1.000000
vt 0.800000 0.000000
vt 0.205414 0.000000
vt 0.205414 1.000000
vt 0.526800 1.000000
vt 0.000000 0.000000
vt 0.000000 1.000000
vt 0.800000 1.000000
vt 0.944236 2.319747
vt 0.944236 0.911959
vt 0.933324 0.911961
vt 0.933324 2.319746
vt 0.904941 1.388639
vt 0.926938 1.388639
vt 0.926938 0.761348
vt 0.904941 0.761348
vt 0.933324 1.388640
vt 0.933324 0.761349
vt 0.944235 0.761350
vt 0.944236 1.388638
vt 0.944235 8.669444
vt 0.944236 7.261655
vt 0.933324 7.261657
vt 0.933324 8.669442
vt 0.805727 1.388640
vt 0.827724 1.388640
vt 0.827724 0.761346
vt 0.805727 0.761349
vt 0.946234 4.810095
vt 0.946234 0.939025
vt 0.944249 0.939027
vt 0.944249 4.810098
vt 0.888000 0.386235
vt 0.991800 0.448637
vt 0.991801 -0.120829
vt 0.898986 -0.120831
vt 0.944250 -0.120829
vt 0.946234 -0.120828
vt 0.946234 -1.586813
vt 0.944249 -1.586814
vt 0.877015 0.893305
vt 0.926570 0.893304
vt 0.926515 1.400374
vt 0.866030 1.400374
vt 0.944249 0.962033
vt 0.944249 0.742864
vt 0.946234 0.742866
vt 0.946234 0.962031
vt 0.944249 0.893303
vt 0.944250 1.400370
vt 0.946234 1.400374
vt 0.946234 0.893304
vt 0.805544 1.181200
vt 0.805544 1.400372
vt 0.944250 8.681163
vt 0.944249 2.700903
vt 0.946234 2.700901
vt 0.946234 8.681165
vt 0.805544 0.962035
vt 0.805544 0.742866
vt 0.943997 0.448632
vt 0.945981 0.448633
vt 0.943997 -3.239251
vt 0.944249 0.935508
vt 0.946234 0.935506
vt 0.945981 -3.239250
vt 0.944249 1.181198
vt 0.946234 1.181199
vt 0.944250 -3.239254
vt 0.946234 -3.239252
vt 0.946234 2.700901
vt 0.898986 -1.586816
vt 0.991801 -1.586813
vt 0.931303 4.810093
vt 0.933288 4.810094
vt 0.933287 0.939020
vt 0.931303 0.939020
vt 0.933287 -0.120826
vt 0.933288 -1.586815
vt 0.931303 -1.586812
vt 0.931303 -0.120827
vt 0.926515 1.400374
vt 0.933287 0.962033
vt 0.931304 0.962029
vt 0.931303 0.742867
vt 0.933288 0.742865
vt 0.933287 0.893306
vt 0.931303 0.893305
vt 0.931303 1.400373
vt 0.933287 1.400373
vt 0.933287 8.681167
vt 0.931303 8.681167
vt 0.931303 2.700905
vt 0.933287 2.700903
vt 0.931556 0.448633
vt 0.933541 0.448631
vt 0.933541 -3.239252
vt 0.931556 -3.239250
vt 0.931303 0.935506
vt 0.933288 0.935507
vt 0.931304 1.181198
vt 0.933288 1.181195
vt 0.933287 2.700903
vt 0.931303 2.700905
vt 0.931303 -3.239252
vt 0.933288 -3.239251
s 0
usemtl Material.006
f 5/1/1 7/2/1 8/3/1 6/4/1
f 1/1/2 9/5/2 86/6/2 3/7/2
f 5/1/3 9/5/3 86/6/3 7/2/3
f 9/5/1 87/8/1 88/9/1 86/6/1
f 1/1/1 3/7/1 4/10/1 2/4/1
f 13/11/4 14/12/4 16/13/4 15/14/4
f 15/15/1 16/16/1 20/17/1 19/18/1
f 19/14/5 20/13/5 18/12/5 17/11/5
f 17/18/6 18/17/6 14/16/6 13/15/6
f 15/19/7 19/20/7 17/21/7 13/22/7
f 20/20/8 16/19/8 14/22/8 18/21/8
f 21/23/4 22/24/4 24/25/4 23/26/4
f 23/27/1 24/28/1 28/29/1 27/30/1
f 27/26/5 28/25/5 26/24/5 25/23/5
f 25/30/6 26/29/6 22/28/6 21/27/6
f 23/19/7 27/20/7 25/21/7 21/22/7
f 28/20/8 24/19/8 22/22/8 26/21/8
f 37/31/4 30/32/4 32/33/4 38/34/4
f 52/35/9 44/36/9 36/37/9 39/38/9
f 36/39/8 34/40/8 54/41/8 53/42/8
f 50/43/6 48/44/6 30/45/6 37/46/6
f 41/47/7 35/48/7 33/49/7 46/50/7
f 43/51/10 32/52/10 30/53/10 48/54/10
f 45/55/6 50/43/6 37/46/6 29/56/6
f 35/57/11 39/58/11 40/59/11 33/60/11
f 41/61/1 52/35/1 39/38/1 35/62/1
f 29/60/4 37/31/4 38/34/4 31/57/4
f 31/56/1 38/46/1 51/43/1 42/55/1
f 42/55/1 51/43/1 52/35/1 41/61/1
f 33/62/6 40/38/6 49/35/6 46/61/6
f 46/61/6 49/35/6 50/43/6 45/55/6
f 36/39/8 44/63/8 47/64/8 34/40/8
f 44/65/12 43/66/12 48/67/12 47/68/12
f 31/52/7 42/69/7 45/70/7 29/53/7
f 42/69/7 41/47/7 46/50/7 45/70/7
f 40/38/13 34/37/13 47/36/13 49/35/13
f 49/35/14 47/36/14 48/44/14 50/43/14
f 38/46/1 32/45/1 43/44/1 51/43/1
f 51/43/15 43/44/15 44/36/15 52/35/15
f 55/58/5 53/71/5 54/72/5 56/73/5
f 40/40/7 39/39/7 55/42/7 56/41/7
f 34/37/6 40/38/6 56/74/6 54/75/6
f 39/38/1 36/37/1 53/75/1 55/74/1
f 65/76/4 66/77/4 60/78/4 58/79/4
f 80/35/16 67/38/16 64/37/16 72/36/16
f 64/80/8 81/81/8 82/82/8 62/83/8
f 78/43/1 65/46/1 58/84/1 76/44/1
f 69/85/7 74/86/7 61/87/7 63/88/7
f 71/89/10 76/90/10 58/91/10 60/92/10
f 73/55/1 57/56/1 65/46/1 78/43/1
f 63/93/11 61/94/11 68/95/11 67/96/11
f 69/61/6 63/62/6 67/38/6 80/35/6
f 57/94/4 59/93/4 66/77/4 65/76/4
f 59/56/6 70/55/6 79/43/6 66/46/6
f 70/55/6 69/61/6 80/35/6 79/43/6
f 61/62/1 74/61/1 77/35/1 68/38/1
f 74/61/1 73/55/1 78/43/1 77/35/1
f 64/80/8 62/83/8 75/97/8 72/98/8
f 72/99/12 75/100/12 76/101/12 71/102/12
f 59/92/7 57/91/7 73/103/7 70/104/7
f 70/104/7 73/103/7 74/86/7 69/85/7
f 68/38/17 77/35/17 75/36/17 62/37/17
f 77/35/18 78/43/18 76/44/18 75/36/18
f 66/46/6 79/43/6 71/44/6 60/84/6
f 79/43/19 80/35/19 72/36/19 71/44/19
f 83/105/5 84/106/5 82/107/5 81/108/5
f 68/83/7 84/82/7 83/81/7 67/80/7
f 62/37/1 82/75/1 84/74/1 68/38/1
f 67/38/6 83/74/6 81/75/6 64/37/6
f 90/1/6 92/4/6 91/3/6 89/2/6
f 12/1/20 85/7/20 96/6/20 93/5/20
f 90/1/21 89/2/21 96/6/21 93/5/21
f 93/5/6 96/6/6 94/9/6 95/8/6
f 12/1/6 11/4/6 10/10/6 85/7/6
f 87/8/22 95/8/22 94/9/22 88/9/22
f 3/7/8 86/6/8 96/6/8 85/7/8
f 1/1/7 2/4/7 11/4/7 12/1/7
f 5/1/7 90/1/7 93/5/7 9/5/7
f 88/9/8 94/9/8 96/6/8 86/6/8
f 9/5/7 93/5/7 95/8/7 87/8/7
f 4/10/8 3/7/8 85/7/8 10/10/8
f 6/4/7 92/4/7 90/1/7 5/1/7
f 9/5/7 1/1/7 12/1/7 93/5/7
f 7/2/8 89/2/8 91/3/8 8/3/8
f 2/4/23 4/10/23 10/10/23 11/4/23
f 8/3/24 6/4/24 92/4/24 91/3/24
f 86/6/8 96/6/8 89/2/8 7/2/8
